<?xml version="1.0" encoding="UTF-8" standalone="no"?><!DOCTYPE svg PUBLIC "-//W3C//DTD SVG 1.1//EN" "http://www.w3.org/Graphics/SVG/1.1/DTD/svg11.dtd"><svg width="100%" height="100%" viewBox="0 0 1601 483" version="1.1" xmlns="http://www.w3.org/2000/svg" xmlns:xlink="http://www.w3.org/1999/xlink" xml:space="preserve" xmlns:serif="http://www.serif.com/" style="fill-rule:evenodd;clip-rule:evenodd;stroke-linejoin:round;stroke-miterlimit:2;"><g id="HILLS"><path d="M392.316,320.105c0,0 36.324,-45.721 64.94,-81.741c22.423,-28.224 49.991,-51.944 81.245,-69.905c0,0 0,0 0,0c47.984,-27.575 102.358,-42.086 157.701,-42.086l6.126,0c7.708,0 15.399,0.724 22.972,2.163c23.35,4.437 77.819,14.786 117.65,22.354c30.94,5.879 61.036,15.556 89.603,28.813c28.324,13.143 64.871,30.103 91.051,42.252c22.299,10.347 43.255,23.371 62.406,38.784c0,0 0,0 0,0c19.969,16.072 37.463,34.994 51.922,56.16c3.208,4.698 5.459,7.993 5.459,7.993l-680.934,-3.989l-70.141,-0.798" style="fill:url(#_Linear1);"/><path d="M0,150.978c0,0 23.423,-2.107 47.587,-4.28c33.178,-2.983 63.345,-20.463 82.434,-47.763c0,0 0,-0.001 0,-0.001c42.196,-60.348 115.544,-90.772 188.066,-78.006c6.176,1.088 12.297,2.165 18.28,3.218c50.504,8.89 98.869,27.258 142.542,54.133c12.236,7.53 23.978,14.756 32.987,20.3c10.423,6.414 20.609,13.206 30.538,20.361c68.983,49.759 144.144,85.971 226.427,106.521c75.194,18.758 144.384,56.327 201.068,109.175c65.523,60.945 139.403,129.824 139.403,129.824l-1109.33,17.741l0,-331.223Z" style="fill:url(#_Linear2);"/><path d="M554.666,308.411c0,0 110.552,-74.692 187.114,-126.421c46.806,-31.623 101.433,-49.713 157.863,-52.277c23.506,-1.068 47.676,-2.166 66.598,-3.025c23.611,-1.073 47.266,0.586 70.496,4.943c2.615,0.491 5.316,0.997 8.083,1.516c61.181,11.476 115.916,45.272 153.584,94.83c0,0.001 0,0.001 0,0.001l94.837,98.962l-119.104,34.038l-518.984,0l-100.487,-52.567Z" style="fill:url(#_Linear3);"/><path d="M897.45,346.858c0,0 79.339,-72.794 129.805,-119.098c27.031,-24.801 57.746,-45.259 91.05,-60.642c31.01,-14.324 70.329,-32.486 99.678,-46.042c27.188,-12.559 57.862,-15.407 86.897,-8.071c35.496,8.97 80.996,20.467 92.885,23.471c1.964,0.496 3.909,1.061 5.833,1.695c0,0 0,0 0,0.001c63.201,20.83 130.647,25.317 196.05,13.042c0.821,-0.154 1.261,-0.236 1.261,-0.236l0,239.919c0,0 -375.493,-5.561 -385.185,-5.704c-0.127,-0.002 -0.254,-0.011 -0.38,-0.026c-8.756,-1.055 -317.894,-38.309 -317.894,-38.309Z" style="fill:url(#_Linear4);"/><path d="M0,150.978c0,0 46.286,-18.97 57.574,-23.597c1.639,-0.671 3.237,-1.438 4.787,-2.295c0.213,-0.118 0.439,-0.243 0.678,-0.375c37.857,-20.94 83.373,-22.795 122.807,-5.004c0.001,0 0.001,0 0.001,0c9.804,4.423 18.955,10.17 27.197,17.081c13.46,11.285 34.983,29.331 49.726,41.692c10.717,8.986 21.025,18.45 30.891,28.362c0,0 0,0 0,0c34.063,34.221 63.81,72.482 88.578,113.93c5.887,9.851 10.077,16.862 10.077,16.862l-75.943,-5.25l-118.145,28.594l-198.228,6.51l0,-216.51Z" style="fill:url(#_Linear5);"/></g><defs><linearGradient id="_Linear1" x1="0" y1="0" x2="1" y2="0" gradientUnits="userSpaceOnUse" gradientTransform="matrix(751.076,0,0,198.52,392.316,225.632)"><stop offset="0" style="stop-color:#c9dd97;stop-opacity:1"/><stop offset="0.5" style="stop-color:#9aba4f;stop-opacity:1"/><stop offset="1" style="stop-color:#388235;stop-opacity:1"/></linearGradient><linearGradient id="_Linear2" x1="0" y1="0" x2="1" y2="0" gradientUnits="userSpaceOnUse" gradientTransform="matrix(1109.33,0,0,482.201,0,241.1)"><stop offset="0" style="stop-color:#6ab96f;stop-opacity:1"/><stop offset="1" style="stop-color:#32792f;stop-opacity:1"/></linearGradient><linearGradient id="_Linear3" x1="0" y1="0" x2="1" y2="0" gradientUnits="userSpaceOnUse" gradientTransform="matrix(738.575,0,0,235.904,554.666,243.025)"><stop offset="0" style="stop-color:#7fff7a;stop-opacity:1"/><stop offset="1" style="stop-color:#298d25;stop-opacity:1"/></linearGradient><linearGradient id="_Linear4" x1="0" y1="0" x2="1" y2="0" gradientUnits="userSpaceOnUse" gradientTransform="matrix(634.607,0,0,328.125,966.302,226.834)"><stop offset="0" style="stop-color:#35ca2f;stop-opacity:1"/><stop offset="1" style="stop-color:#075d04;stop-opacity:1"/></linearGradient><linearGradient id="_Linear5" x1="0" y1="0" x2="1" y2="0" gradientUnits="userSpaceOnUse" gradientTransform="matrix(316.373,7.02091e-14,-6.133e-14,276.049,0,229.464)"><stop offset="0" style="stop-color:#075d04;stop-opacity:1"/><stop offset="1" style="stop-color:#35ca2f;stop-opacity:1"/></linearGradient></defs></svg>